<?xml version="1.0" encoding="UTF-8" standalone="no"?>
<!-- Created with Inkscape (http://www.inkscape.org/) -->

<svg
   xmlns:dc="http://purl.org/dc/elements/1.1/"
   xmlns:cc="http://creativecommons.org/ns#"
   xmlns:rdf="http://www.w3.org/1999/02/22-rdf-syntax-ns#"
   xmlns:svg="http://www.w3.org/2000/svg"
   xmlns="http://www.w3.org/2000/svg"
   xmlns:sodipodi="http://sodipodi.sourceforge.net/DTD/sodipodi-0.dtd"
   xmlns:inkscape="http://www.inkscape.org/namespaces/inkscape"
   width="1820"
   height="430"
   viewBox="0 0 481.54168 113.77083"
   version="1.1"
   id="svg8"
   inkscape:version="0.92.1 r"
   sodipodi:docname="banner.svg">
  <defs
     id="defs2" />
  <sodipodi:namedview
     id="base"
     pagecolor="#ffffff"
     bordercolor="#666666"
     borderopacity="1.0"
     inkscape:pageopacity="0.0"
     inkscape:pageshadow="2"
     inkscape:zoom="0.49497475"
     inkscape:cx="581.79628"
     inkscape:cy="73.484069"
     inkscape:document-units="mm"
     inkscape:current-layer="layer1"
     showgrid="false"
     units="mm"
     inkscape:window-width="3190"
     inkscape:window-height="1742"
     inkscape:window-x="0"
     inkscape:window-y="48"
     inkscape:window-maximized="0" />
  <metadata
     id="metadata5">
    <rdf:RDF>
      <cc:Work
         rdf:about="">
        <dc:format>image/svg+xml</dc:format>
        <dc:type
           rdf:resource="http://purl.org/dc/dcmitype/StillImage" />
        <dc:title></dc:title>
      </cc:Work>
    </rdf:RDF>
  </metadata>
  <g
     inkscape:label="Layer 1"
     inkscape:groupmode="layer"
     id="layer1"
     transform="translate(0,-183.22917)">
    <text
       xml:space="preserve"
       style="font-style:normal;font-weight:normal;font-size:8.55145931px;line-height:1.25;font-family:sans-serif;letter-spacing:0px;word-spacing:0px;fill:#ffffff;fill-opacity:1;stroke:none;stroke-width:0.21378648"
       x="14.545175"
       y="280.4028"
       id="text834"><tspan
         sodipodi:role="line"
         id="tspan832"
         x="14.545175"
         y="280.4028"
         style="font-style:normal;font-variant:normal;font-weight:normal;font-stretch:normal;font-size:171.02920532px;font-family:'Pier Sans';-inkscape-font-specification:'Pier Sans';fill:#ffffff;stroke-width:0.21378648"><tspan
           style="fill:#ff5555;fill-opacity:1;stroke-width:0.21378648"
           id="tspan871">r<tspan
   style="fill:#272b35;fill-opacity:1"
   id="tspan4594">um</tspan></tspan></tspan></text>
    <path
       style="fill:#ff5555;fill-opacity:1;stroke-width:0.09805046"
       d="m 399.79285,221.09577 a 4.9919149,3.4666073 0 0 0 -4.93661,2.9804 3.70927,3.70927 0 0 1 2.15137,-0.69306 3.70927,3.70927 0 0 1 3.70925,3.70925 3.70927,3.70927 0 0 1 -0.11279,0.88916 4.9919149,3.4666073 0 0 0 4.18074,-3.41913 4.9919149,3.4666073 0 0 0 -4.99196,-3.46662 z"
       id="path5143"
       inkscape:connector-curvature="0" />
    <path
       style="fill:#ff5555;fill-opacity:1;stroke-width:0.20866838"
       d="m 458.17198,240.36912 -1.22145,0.26617 a 12.483715,12.483715 0 0 1 -9.67157,14.07035 12.483715,12.483715 0 0 1 -14.65808,-8.77169 l -1.19863,0.26114 a 13.722228,13.722228 0 0 0 16.1202,9.72059 13.722228,13.722228 0 0 0 10.62953,-15.54656 z m -26.74973,5.82597 -1.22179,0.26618 a 12.483715,12.483715 0 0 1 -9.67158,14.07001 12.483715,12.483715 0 0 1 -14.65774,-8.77136 l -1.19897,0.26114 a 13.722228,13.722228 0 0 0 16.12053,9.72026 13.722228,13.722228 0 0 0 10.62955,-15.54623 z m -26.75008,5.82597 -1.22145,0.26584 a 12.483715,12.483715 0 0 1 -9.67158,14.07036 12.483715,12.483715 0 0 1 -10.64532,-2.62752 l -0.7851,0.92104 a 13.722228,13.722228 0 0 0 11.69391,2.91651 13.722228,13.722228 0 0 0 10.62954,-15.54623 z"
       id="path4958"
       inkscape:connector-curvature="0" />
    <path
       style="fill:#272b35;fill-opacity:1;stroke-width:0.18100449"
       d="m 349.42779,201.91442 5.2e-4,4.3e-4 -1.81249,2.11752 2.36919,2.02791 1.81249,-2.11752 18.56826,15.8935 -8.6525,10.10867 c -5.57197,6.5097 -4.81704,16.2361 1.69265,21.80806 l 43.83053,37.5167 c 6.50971,5.57197 16.23611,4.81705 21.80808,-1.69265 l 27.7783,-32.45323 c 5.57197,-6.50971 4.81705,-16.2361 -1.69265,-21.80807 l -43.83052,-37.51669 c -6.50971,-5.57197 -16.2361,-4.81705 -21.80808,1.69265 l -8.22077,9.60429 -18.56829,-15.89349 1.63329,-1.90816 -2.3692,-2.02791 -1.63328,1.90816 -5.1e-4,-4.4e-4 z m 3.86491,0.28874 7.92197,-9.2552 18.52033,15.85246 -7.92197,9.25519 z m 11.67383,28.60314 7.70239,-8.99866 0.0257,0.022 10.90502,-12.74027 -0.0258,-0.022 7.27066,-8.49428 c 5.19077,-6.06433 14.2518,-6.76737 20.31612,-1.57662 l 40.832,34.9501 c 6.06433,5.19075 6.76759,14.25153 1.57683,20.31586 l -25.87807,30.23321 c -5.19076,6.06433 -14.25154,6.76759 -20.31587,1.57684 l -40.83194,-34.9501 c -6.06433,-5.19076 -6.76784,-14.25175 -1.57708,-20.31608 z"
       id="rect4509"
       inkscape:connector-curvature="0" />
    <flowRoot
       xml:space="preserve"
       id="flowRoot4572"
       style="fill:black;fill-opacity:1;stroke:none;font-family:sans-serif;font-style:normal;font-weight:normal;font-size:40px;line-height:1.25;letter-spacing:0px;word-spacing:0px"><flowRegion
         id="flowRegion4574"><rect
           id="rect4576"
           width="327.28943"
           height="66.670067"
           x="-30.304577"
           y="248.17255" /></flowRegion><flowPara
         id="flowPara4578"></flowPara></flowRoot>    <flowRoot
       xml:space="preserve"
       id="flowRoot4580"
       style="fill:black;fill-opacity:1;stroke:none;font-family:sans-serif;font-style:normal;font-weight:normal;font-size:40px;line-height:1.25;letter-spacing:0px;word-spacing:0px"><flowRegion
         id="flowRegion4582"><rect
           id="rect4584"
           width="226.27417"
           height="48.487324"
           x="72.73098"
           y="223.92888" /></flowRegion><flowPara
         id="flowPara4586"></flowPara></flowRoot>  </g>
</svg>
